<?xml version="1.0" encoding="utf-8"?>
<!-- Generator: Adobe Illustrator 26.3.1, SVG Export Plug-In . SVG Version: 6.00 Build 0)  -->
<svg version="1.1" id="Camada_1" xmlns="http://www.w3.org/2000/svg" xmlns:xlink="http://www.w3.org/1999/xlink" x="0px" y="0px"
	 viewBox="0 0 150.2 158.7" style="enable-background:new 0 0 150.2 158.7;" xml:space="preserve">
<style type="text/css">
	.st0{fill-rule:evenodd;clip-rule:evenodd;fill:#DDE4E3;}
	.st1{filter:url(#Adobe_OpacityMaskFilter);}
	.st2{fill-rule:evenodd;clip-rule:evenodd;fill:#FFFFFF;}
	.st3{mask:url(#SVGID_1_);}
	.st4{fill:#DAD2BD;}
	.st5{fill:#2167AE;}
	.st6{fill:#5495CF;}
	.st7{fill:#91BFE3;}
	.st8{fill:none;stroke:#2167AE;stroke-width:5;stroke-linecap:round;stroke-linejoin:round;stroke-miterlimit:10;}
</style>
<g id="Circle">
	<g id="Rectangle">
		<path class="st0" d="M74.6,6.3L74.6,6.3c38.7,0,70,31.3,70,70l0,0c0,38.7-31.3,70-70,70l0,0c-38.7,0-70-31.3-70-70l0,0
			C4.6,37.6,35.9,6.3,74.6,6.3z"/>
	</g>
</g>
<defs>
	<filter id="Adobe_OpacityMaskFilter" filterUnits="userSpaceOnUse" x="6.2" y="26.6" width="109.9" height="173.2">
		<feColorMatrix  type="matrix" values="1 0 0 0 0  0 1 0 0 0  0 0 1 0 0  0 0 0 1 0"/>
	</filter>
</defs>
<mask maskUnits="userSpaceOnUse" x="6.2" y="26.6" width="109.9" height="173.2" id="SVGID_1_">
	<g class="st1">
		<g id="Circle_00000112629743354365384250000017071800192391785353_">
			<g id="Rectangle_00000058566361044459598450000005732692704666988453_">
				<path class="st2" d="M74.6,6.3L74.6,6.3c38.7,0,70,31.3,70,70l0,0c0,38.7-31.3,70-70,70l0,0c-38.7,0-70-31.3-70-70l0,0
					C4.6,37.6,35.9,6.3,74.6,6.3z"/>
			</g>
		</g>
	</g>
</mask>
<g class="st3">
	<g>
		<path class="st4" d="M59.7,77.5c0,0.2,0.1,0.5,0.1,0.7l0,0C59.7,77.9,59.7,77.7,59.7,77.5z"/>
		<path class="st4" d="M59.7,77.5C59.6,77,59.6,76.7,59.7,77.5L59.7,77.5z"/>
		<path class="st4" d="M59.8,78.6c0-0.1,0-0.2,0-0.4l0,0C59.8,78.4,59.8,78.6,59.8,78.6z"/>
		<path class="st4" d="M59.8,78.3L59.8,78.3L59.8,78.3L59.8,78.3z"/>
		<path class="st4" d="M59.8,78.3C59.8,78.2,59.8,78.2,59.8,78.3C59.8,78.2,59.8,78.2,59.8,78.3L59.8,78.3z"/>
		<path class="st4" d="M44.4,35.4c0.8-0.8,3.5-5.5,3.5-5.5s-1.5-2.1-2.6-3c-1.7,1.2-3.2,4.9-4.3,7.8l1.3,0.6
			C42.3,35.4,43.7,36.1,44.4,35.4z"/>
		<path class="st4" d="M56.7,112.9c-3.3,0-6-3.2-6-7V67.7c-3.2,1.7-6.2,3.5-6.2,3.5v-19c0,0,4.4-6.5,6.2-12v-7
			c-0.5-2.4-1.6-4.8-3.4-6.2c-0.6-0.5-1.3-0.4-1.9,0c1.1,0.9,2.6,3,2.6,3s-2.7,4.7-3.5,5.5s-2.1,0-2.1,0L41,34.7
			c-0.7,1.9-0.5,1.6-0.7,1.9c-2.5,5.3-7.7,4.6-8.1,10.4c-0.5,7.2-8.2,19.4-6.3,25.7c1.7,5.8,0.4,12.1,0.4,18.1c0,1.6-1.3,4-1.2,5.1
			c-2.9,3.2-18.9,13.2-18.9,13.2l18.6,29.6c0,0,18.8-14.3,27.8-16.1c13.7-2.7,17.1-6.8,20.5-9.8H56.7V112.9z"/>
	</g>
	<g>
		<path class="st4" d="M99.7,89.6c-0.4,0-0.8,0.1-1.1,0.2v9.9c0.3,0.1,0.7,0.2,1.1,0.2c2.5,0,5.7-2.3,5.7-5.1
			C105.5,91.9,102.3,89.6,99.7,89.6z"/>
		<path class="st4" d="M100.1,76.9c-0.6,0-1.1,0.2-1.5,0.4v4.1v6.8c0.4,0.2,0.9,0.4,1.5,0.4c2.5,0,5.7-2.6,5.7-5.9
			C105.9,79.5,102.7,76.9,100.1,76.9z"/>
		<path class="st4" d="M103.8,42.7c-1.6-0.3-3.6,0-5.2,0.7V55c4.5,0.1,7.4-4.4,8.6-8.3C108.2,43.6,103.8,42.7,103.8,42.7z"/>
		<path class="st4" d="M105.1,64.5c-2.2-2.3-5.6-0.6-6.5-0.1v12.3c0.6-0.2,1.2-0.5,1.9-0.8C106.9,73,109.7,69.4,105.1,64.5z"/>
	</g>
	<g>
		<path class="st5" d="M58.3,33.7h32.5c4.2,0,7.6,3.4,7.6,7.6v65.8c0,4.2-3.4,7.6-7.6,7.6H58.3c-4.2,0-7.6-3.4-7.6-7.6V41.2
			C50.8,37.1,54.1,33.7,58.3,33.7z"/>
		<path class="st6" d="M59.6,37.3h30c2.8,0,5.1,2.3,5.1,5.1v55.1c0,2.8-2.3,5.1-5.1,5.1h-30c-2.8,0-5.1-2.3-5.1-5.1V42.4
			C54.5,39.6,56.8,37.3,59.6,37.3z"/>
		<circle class="st6" cx="74.6" cy="108.5" r="3.2"/>
	</g>
	<path class="st7" d="M89.5,59.6l-14.6-5.8c-0.2-0.1-0.4-0.1-0.6,0l-14.7,5.8c-0.3,0.1-0.5,0.4-0.5,0.7v12.2c0,0.8,0.2,8,6.2,12.1
		c3.1,2.1,4.9,3.2,6.2,4c0.9,0.6,1.7,1,2.5,1.6c0.1,0.1,0.3,0.1,0.5,0.1l0,0c0.1,0,0.3,0,0.4-0.1l0.4-0.3c1.8-1.1,3.5-2.1,8.3-5.4
		c6-4.1,6.2-11.3,6.2-12.1V60.3C90,60,89.8,59.7,89.5,59.6z"/>
	<polyline class="st8" points="67.9,73.9 72.7,77.7 81.1,66.4 	"/>
	<g>
		<g>
			<g>
				<path class="st4" d="M69.4,158.4c-0.1-5.2-0.3-10.4-0.4-15.6c-0.1-4.8-0.1-9.7,0-14.5l0,0c0,0-4.5,18.6-4.9,20.7
					c-1.1,5.2,2.4,11,4.3,15.7c0.4,0.9,5.9,13.3,5.9,13.3l0,0c-0.3-0.9-0.7-1.9-1-3.1C71.7,169.6,69.5,164,69.4,158.4z"/>
				<path class="st4" d="M110.8,180.2c-2.3-6.3,5.6-15,5.3-21.6c-0.2-4.8,1-17-3.4-20.1c-2.1-1.5-4.1-0.7-5.3-3.6
					c-1.3-3.3-3.9-1.4-6-3c-2-1.6-1.4-5.3-5.1-4.3c-2,0.1-3.7,1.1-5.2-1c-1.3-1.8-2-4.1-4.8-3.5c-1.6,0-3,1.1-4.4-0.4
					c-1.3-1.4-1-4.5-1.1-6.2c-0.5-7-1.1-14-1.6-21c-0.2-2,0.1-5.2-1.2-6.7c-4.1-5.1-7.3,4.5-7.5,7.3c-0.4,6.3-0.7,12.7-1.1,19
					c-0.3,4.5-0.4,8.9-0.5,13.3c-0.1,4.8-0.1,9.6,0,14.5c0.1,5.2,0.3,10.4,0.4,15.6c0.1,5.6,2.3,11.2,3.8,16.5
					c0.3,1.2,0.7,2.2,1,3.1c1,2.8,2.2,4.5,4.4,7.5c2.6,3.7,5.6,14.3,5.6,14.3l29.1-4.1C113.3,195.7,111.7,182.7,110.8,180.2z"/>
			</g>
			<g>
				<path class="st4" d="M74.1,88.4c0,0-0.5,3.7,0.6,4.4c1.1,0.7,4.4,0.6,4.4,0.6c-0.2-1.6,0-3.7-1.1-4.8c-0.2-0.2-0.4-0.4-0.6-0.6
					C76.4,87.9,75,87.8,74.1,88.4z"/>
			</g>
		</g>
	</g>
</g>
</svg>
